<?xml version="1.0" encoding="UTF-8"?>
<svg id="Artwork" xmlns="http://www.w3.org/2000/svg" viewBox="0 0 779.13 779.13">
  <defs>
    <style>
      .cls-1 {
        fill: #0068ff;
      }
    </style>
  </defs>
  <g id="_Radial_Repeat_" data-name="&amp;lt;Radial Repeat&amp;gt;">
    <path class="cls-1" d="M79.32,370.24c-.47,1.87-.8,3.74-1.06,5.49l.64-4.32c.04-.29.19-.69.42-1.17Z"/>
    <path class="cls-1" d="M111.16,299.34l53.61,8.35c-9.32,8.79-18.48,18.67-28.05,25.89-5.21,4.21-9.86,5.28-17.53,4.21l-13.8-2.17c-9.66-1.57-16.26-10.67-14.75-20.34l.17-1.14c1.52-9.67,10.68-16.31,20.35-14.8Z"/>
    <path class="cls-1" d="M254.91,320.82c9.67,1.52,16.37,10.64,14.86,20.3l-.17,1.19c-1.52,9.67-10.68,16.31-20.35,14.8,0,0-40.97-6.48-48.6-7.57-9.51-.99-20.34-4.81-29.74,2.32-1.07.8-5.8,4.6-7.07,5.68-12.11,10.18-23.82,23.7-36.07,33.02-8.78,6.9-19.23,4.1-19.23,4.1l-15.34-2.38c-9.67-1.52-16.31-10.68-14.8-20.35l.17-1.14c1.52-9.67,10.62-16.27,20.36-14.85,6.85,1,16.51,2.76,23.45,3.79,8.87,1.47,13.91.62,19.55-3.91,13.43-10.15,26.03-25.44,39.48-35.75,10.92-9.8,21.75-7.32,21.75-7.32l51.74,8.04Z"/>
  </g>
  <g id="_Radial_Repeat_-2" data-name="&amp;lt;Radial Repeat&amp;gt;">
    <path class="cls-1" d="M118.43,237.54c-1.24,1.48-2.35,3.02-3.34,4.49l2.45-3.62c.16-.24.47-.54.89-.87Z"/>
    <path class="cls-1" d="M177.88,187.48l44.68,30.78c-12.21,3.88-24.75,8.8-36.5,11.16-6.52,1.53-11.18.47-17.62-3.81l-11.49-7.94c-8.02-5.6-10.02-16.67-4.46-24.72l.64-.95c5.56-8.05,16.7-10.06,24.75-4.5Z"/>
    <path class="cls-1" d="M298.07,269.21c8.05,5.56,10.14,16.69,4.58,24.74l-.67,1c-5.56,8.05-16.7,10.06-24.75,4.5,0,0-34.1-23.61-40.5-27.9-8.14-5.02-16.24-13.16-27.8-10.81-1.31.25-7.22,1.63-8.83,2.05-15.33,3.92-31.74,11.02-46.82,14.1-10.9,2.4-19.1-4.65-19.1-4.65l-12.79-8.8c-8.05-5.56-10.06-16.7-4.5-24.75l.64-.95c5.56-8.05,16.63-10.05,24.78-4.55,5.74,3.87,13.68,9.65,19.49,13.59,7.35,5.17,12.26,6.59,19.31,4.96,16.5-3.32,34.49-11.63,51.08-15.08,14.09-4.1,22.77,2.85,22.77,2.85l43.13,29.7Z"/>
  </g>
  <g id="_Radial_Repeat_-3" data-name="&amp;lt;Radial Repeat&amp;gt;">
    <path class="cls-1" d="M211.24,134.95c-1.76.8-3.42,1.7-4.96,2.6l3.78-2.2c.25-.15.66-.28,1.18-.4Z"/>
    <path class="cls-1" d="M286.52,115.65l26.9,47.12c-12.69-1.8-26.12-2.81-37.73-5.79-6.54-1.45-10.28-4.42-14.22-11.08l-6.91-12.14c-4.8-8.53-1.79-19.37,6.71-24.21l.99-.58c8.5-4.84,19.41-1.82,24.26,6.68Z"/>
    <path class="cls-1" d="M359.35,241.43c4.84,8.5,1.89,19.43-6.61,24.27l-1.04.61c-8.5,4.84-19.41,1.82-24.26-6.68,0,0-20.48-36.07-24.39-42.71-5.16-8.05-8.92-18.9-20.36-21.8-1.29-.34-7.21-1.67-8.85-1.98-15.51-3.12-33.38-3.84-48.3-7.61-10.87-2.56-15.2-12.48-15.2-12.48l-7.71-13.48c-4.84-8.5-1.82-19.41,6.68-24.26l.99-.58c8.5-4.84,19.34-1.84,24.3,6.66,3.49,5.98,8.13,14.63,11.66,20.7,4.38,7.85,8.19,11.26,15.25,12.85,16.31,4.17,36.12,4.48,52.56,8.58,14.47,2.42,19.28,12.45,19.28,12.45l25.97,45.47Z"/>
  </g>
  <g id="_Radial_Repeat_-4" data-name="&amp;lt;Radial Repeat&amp;gt;">
    <path class="cls-1" d="M339.38,82.8c-1.93-.04-3.83.05-5.59.19l4.36-.34c.29-.02.72.03,1.24.15Z"/>
    <path class="cls-1" d="M415.58,98.07l3.79,54.13c-10.65-7.13-22.31-13.86-31.48-21.58-5.26-4.15-7.34-8.44-8.01-16.16l-.95-13.94c-.62-9.77,6.79-18.23,16.55-18.9l1.15-.09c9.76-.67,18.28,6.78,18.95,16.54Z"/>
    <path class="cls-1" d="M426.62,242.99c.67,9.76-6.73,18.33-16.49,19l-1.2.1c-9.76.67-18.28-6.78-18.96-16.54,0,0-2.8-41.38-3.44-49.06-1.15-9.49.16-20.9-8.88-28.48-1.01-.86-5.78-4.63-7.11-5.63-12.62-9.54-28.41-17.94-40.22-27.81-8.68-7.03-8.28-17.83-8.28-17.83l-1.1-15.48c-.67-9.76,6.78-18.28,16.54-18.95l1.15-.09c9.76-.67,18.23,6.73,19.01,16.54.55,6.9.98,16.71,1.53,23.71.54,8.97,2.49,13.69,8.16,18.19,12.88,10.84,30.6,19.71,43.64,30.53,11.99,8.46,11.97,19.58,11.97,19.58l3.67,52.24Z"/>
  </g>
  <g id="_Radial_Repeat_-5" data-name="&amp;lt;Radial Repeat&amp;gt;">
    <path class="cls-1" d="M477.45,91.4c-1.72-.88-3.47-1.61-5.12-2.26l4.07,1.59c.27.11.63.34,1.05.67Z"/>
    <path class="cls-1" d="M539.48,138.22l-20.07,50.41c-6.5-11.04-14.09-22.17-19-33.1-2.94-6.02-2.95-10.79-.2-18.03l5.19-12.97c3.68-9.07,14.03-13.48,23.11-9.85l1.07.42c9.09,3.63,13.53,14.04,9.9,23.13Z"/>
    <path class="cls-1" d="M486.55,273.58c-3.63,9.09-14.01,13.6-23.1,9.97l-1.12-.43c-9.09-3.63-13.53-14.04-9.9-23.13,0,0,15.43-38.5,18.19-45.7,3.08-9.05,9.21-18.76,4.35-29.51-.54-1.22-3.19-6.68-3.97-8.16-7.23-14.08-17.81-28.49-24.17-42.51-4.77-10.09.28-19.66.28-19.66l5.73-14.43c3.63-9.09,14.04-13.53,23.13-9.9l1.07.42c9.09,3.63,13.5,13.97,9.95,23.15-2.5,6.46-6.37,15.48-8.91,22.02-3.41,8.32-3.7,13.42-.54,19.93,6.91,15.35,19.01,31.03,26.07,46.44,7.13,12.83,2.29,22.84,2.29,22.84l-19.36,48.66Z"/>
  </g>
  <g id="_Radial_Repeat_-6" data-name="&amp;lt;Radial Repeat&amp;gt;">
    <path class="cls-1" d="M598.12,159.06c-1.17-1.54-2.42-2.96-3.63-4.26l2.98,3.2c.2.21.42.58.65,1.06Z"/>
    <path class="cls-1" d="M633.69,228.16l-39.96,36.71c-1.06-12.77-3.07-26.09-2.75-38.07-.04-6.7,2.03-11,7.64-16.33l10.3-9.44c7.25-6.57,18.48-6.06,25.1,1.15l.79.84c6.61,7.21,6.1,18.52-1.12,25.14Z"/>
    <path class="cls-1" d="M527.27,327.15c-7.21,6.61-18.53,6.17-25.14-1.04l-.82-.88c-6.61-7.21-6.1-18.52,1.12-25.14,0,0,30.61-27.99,36.22-33.28,6.7-6.82,16.44-12.9,16.72-24.7.04-1.33.02-7.4-.04-9.07-.41-15.82-3.68-33.4-3.33-48.79.08-11.16,8.78-17.59,8.78-17.59l11.42-10.51c7.21-6.61,18.52-6.09,25.13,1.12l.79.84c6.61,7.21,6.1,18.45-1.08,25.17-5.05,4.73-12.45,11.18-17.58,15.97-6.68,6.02-9.15,10.49-9.13,17.73-.44,16.83,3.67,36.21,3.34,53.15.86,14.65-7.84,21.57-7.84,21.57l-38.55,35.44Z"/>
  </g>
  <g id="_Radial_Repeat_-7" data-name="&amp;lt;Radial Repeat&amp;gt;">
    <path class="cls-1" d="M677.48,272.37c-.39-1.89-.9-3.72-1.43-5.41l1.3,4.17c.09.28.13.7.13,1.24Z"/>
    <path class="cls-1" d="M679.55,350.06l-51.93,15.74c4.58-11.97,8.55-24.84,14.04-35.49,2.87-6.05,6.6-9.03,13.97-11.4l13.38-4.03c9.38-2.78,19.28,2.56,22.11,11.93l.34,1.1c2.83,9.37-2.55,19.33-11.91,22.16Z"/>
    <path class="cls-1" d="M540.71,393.08c-9.37,2.83-19.37-2.48-22.2-11.85l-.36-1.15c-2.83-9.37,2.54-19.33,11.91-22.16,0,0,39.72-11.94,47.07-14.27,9-3.24,20.41-4.49,25.78-15,.62-1.18,3.23-6.66,3.9-8.19,6.5-14.43,11.17-31.69,18.17-45.4,4.92-10.02,15.54-12.04,15.54-12.04l14.85-4.51c9.37-2.83,19.33,2.55,22.16,11.91l.34,1.1c2.83,9.37-2.51,19.27-11.9,22.21-6.61,2.07-16.07,4.67-22.77,6.76-8.63,2.52-12.8,5.48-15.92,12.01-7.7,14.97-12.41,34.22-20.06,49.34-5.58,13.57-16.42,16.03-16.42,16.03l-50.11,15.2Z"/>
  </g>
  <g id="_Radial_Repeat_-8" data-name="&amp;lt;Radial Repeat&amp;gt;">
    <path class="cls-1" d="M699.82,408.9c.47-1.87.8-3.74,1.06-5.49l-.64,4.32c-.04.29-.19.69-.42,1.17Z"/>
    <path class="cls-1" d="M667.97,479.79l-53.61-8.35c9.32-8.79,18.48-18.67,28.05-25.89,5.21-4.21,9.86-5.28,17.53-4.21l13.8,2.17c9.66,1.57,16.26,10.67,14.75,20.34l-.17,1.14c-1.52,9.67-10.68,16.31-20.35,14.8Z"/>
    <path class="cls-1" d="M524.23,458.31c-9.67-1.52-16.37-10.64-14.86-20.3l.17-1.19c1.52-9.67,10.68-16.31,20.35-14.8,0,0,40.97,6.48,48.6,7.57,9.51.99,20.34,4.81,29.74-2.32,1.07-.8,5.8-4.6,7.07-5.68,12.11-10.18,23.82-23.7,36.07-33.02,8.78-6.9,19.23-4.1,19.23-4.1l15.34,2.38c9.67,1.52,16.31,10.68,14.8,20.35l-.17,1.14c-1.52,9.67-10.62,16.27-20.36,14.85-6.85-1-16.51-2.76-23.45-3.79-8.87-1.47-13.91-.62-19.55,3.91-13.43,10.15-26.02,25.44-39.48,35.75-10.92,9.8-21.75,7.32-21.75,7.32l-51.74-8.04Z"/>
  </g>
  <g id="_Radial_Repeat_-9" data-name="&amp;lt;Radial Repeat&amp;gt;">
    <path class="cls-1" d="M660.7,541.6c1.24-1.48,2.35-3.02,3.34-4.49l-2.45,3.62c-.16.24-.47.54-.89.87Z"/>
    <path class="cls-1" d="M601.25,591.65l-44.68-30.78c12.21-3.88,24.75-8.8,36.5-11.16,6.52-1.53,11.18-.47,17.62,3.81l11.49,7.94c8.02,5.6,10.02,16.67,4.46,24.72l-.64.95c-5.56,8.05-16.7,10.06-24.75,4.5Z"/>
    <path class="cls-1" d="M481.06,509.93c-8.05-5.56-10.14-16.69-4.58-24.74l.67-1c5.56-8.05,16.7-10.06,24.75-4.5,0,0,34.1,23.61,40.5,27.9,8.14,5.02,16.24,13.16,27.8,10.81,1.31-.25,7.22-1.63,8.83-2.05,15.33-3.92,31.74-11.02,46.82-14.1,10.9-2.4,19.1,4.65,19.1,4.65l12.79,8.8c8.05,5.56,10.06,16.7,4.5,24.75l-.64.95c-5.56,8.05-16.63,10.05-24.78,4.55-5.74-3.87-13.68-9.65-19.49-13.59-7.35-5.17-12.26-6.59-19.31-4.96-16.5,3.32-34.49,11.63-51.08,15.08-14.09,4.1-22.77-2.85-22.77-2.85l-43.13-29.7Z"/>
  </g>
  <g id="_Radial_Repeat_-10" data-name="&amp;lt;Radial Repeat&amp;gt;">
    <path class="cls-1" d="M567.89,644.18c1.76-.8,3.42-1.7,4.96-2.6l-3.78,2.2c-.25.15-.66.28-1.18.4Z"/>
    <path class="cls-1" d="M492.61,663.49l-26.9-47.12c12.69,1.8,26.12,2.81,37.73,5.79,6.54,1.45,10.28,4.42,14.22,11.08l6.91,12.14c4.8,8.53,1.79,19.37-6.71,24.21l-.99.58c-8.5,4.84-19.41,1.82-24.26-6.68Z"/>
    <path class="cls-1" d="M419.78,537.71c-4.84-8.5-1.89-19.43,6.61-24.27l1.04-.61c8.5-4.84,19.41-1.82,24.26,6.68,0,0,20.48,36.07,24.39,42.71,5.16,8.05,8.92,18.9,20.36,21.8,1.29.34,7.21,1.67,8.85,1.98,15.51,3.12,33.38,3.84,48.3,7.61,10.87,2.56,15.2,12.48,15.2,12.48l7.71,13.48c4.84,8.5,1.82,19.41-6.68,24.26l-.99.58c-8.5,4.84-19.34,1.84-24.3-6.66-3.49-5.98-8.13-14.63-11.66-20.7-4.38-7.85-8.19-11.26-15.25-12.85-16.31-4.17-36.12-4.48-52.56-8.58-14.47-2.42-19.28-12.45-19.28-12.45l-25.97-45.47Z"/>
  </g>
  <g id="_Radial_Repeat_-11" data-name="&amp;lt;Radial Repeat&amp;gt;">
    <path class="cls-1" d="M439.76,696.34c1.93.04,3.83-.05,5.59-.19l-4.36.34c-.29.02-.72-.03-1.24-.15Z"/>
    <path class="cls-1" d="M363.56,681.07l-3.79-54.13c10.65,7.13,22.31,13.86,31.48,21.58,5.26,4.15,7.34,8.44,8.01,16.16l.95,13.94c.62,9.77-6.79,18.23-16.55,18.9l-1.15.09c-9.76.67-18.28-6.78-18.95-16.54Z"/>
    <path class="cls-1" d="M352.51,536.14c-.67-9.76,6.73-18.33,16.49-19l1.2-.1c9.76-.67,18.28,6.78,18.96,16.54,0,0,2.8,41.38,3.44,49.06,1.15,9.49-.16,20.9,8.88,28.48,1.01.86,5.78,4.63,7.11,5.63,12.62,9.54,28.41,17.94,40.22,27.81,8.68,7.03,8.28,17.83,8.28,17.83l1.1,15.48c.67,9.76-6.78,18.28-16.54,18.95l-1.15.09c-9.76.67-18.23-6.73-19.01-16.54-.55-6.9-.98-16.71-1.53-23.71-.54-8.97-2.49-13.69-8.16-18.19-12.88-10.84-30.6-19.71-43.64-30.53-11.99-8.46-11.97-19.58-11.97-19.58l-3.67-52.24Z"/>
  </g>
  <g id="_Radial_Repeat_-12" data-name="&amp;lt;Radial Repeat&amp;gt;">
    <path class="cls-1" d="M301.68,687.74c1.72.88,3.47,1.61,5.12,2.26l-4.07-1.59c-.27-.11-.63-.34-1.05-.67Z"/>
    <path class="cls-1" d="M239.65,640.92l20.07-50.41c6.5,11.04,14.09,22.17,19,33.1,2.94,6.02,2.95,10.79.2,18.03l-5.19,12.97c-3.68,9.07-14.03,13.48-23.11,9.85l-1.07-.42c-9.09-3.63-13.53-14.04-9.9-23.13Z"/>
    <path class="cls-1" d="M292.58,505.55c3.63-9.09,14.01-13.6,23.1-9.97l1.12.43c9.09,3.63,13.53,14.04,9.9,23.13,0,0-15.43,38.5-18.19,45.7-3.08,9.05-9.21,18.76-4.35,29.51.54,1.22,3.19,6.68,3.97,8.16,7.23,14.08,17.81,28.49,24.17,42.51,4.77,10.09-.28,19.66-.28,19.66l-5.73,14.43c-3.63,9.09-14.04,13.53-23.13,9.9l-1.07-.42c-9.09-3.63-13.5-13.97-9.95-23.15,2.5-6.46,6.37-15.48,8.91-22.02,3.41-8.32,3.7-13.42.54-19.93-6.91-15.35-19.01-31.03-26.07-46.44-7.13-12.83-2.29-22.84-2.29-22.84l19.36-48.66Z"/>
  </g>
  <g id="_Radial_Repeat_-13" data-name="&amp;lt;Radial Repeat&amp;gt;">
    <path class="cls-1" d="M181.02,620.08c1.17,1.54,2.42,2.96,3.63,4.26l-2.98-3.2c-.2-.21-.42-.58-.65-1.06Z"/>
    <path class="cls-1" d="M145.44,550.98l39.96-36.71c1.06,12.77,3.07,26.09,2.75,38.07.04,6.7-2.03,11-7.64,16.33l-10.3,9.44c-7.25,6.57-18.48,6.06-25.1-1.15l-.79-.84c-6.61-7.21-6.1-18.52,1.12-25.13Z"/>
    <path class="cls-1" d="M251.86,451.99c7.21-6.61,18.53-6.17,25.14,1.04l.82.88c6.61,7.21,6.1,18.52-1.12,25.14,0,0-30.61,27.99-36.22,33.28-6.7,6.82-16.44,12.9-16.72,24.7-.04,1.33-.02,7.4.04,9.07.41,15.82,3.68,33.4,3.33,48.79-.08,11.16-8.78,17.59-8.78,17.59l-11.42,10.51c-7.21,6.61-18.52,6.09-25.13-1.12l-.79-.84c-6.61-7.21-6.1-18.45,1.08-25.17,5.05-4.73,12.45-11.18,17.58-15.97,6.68-6.02,9.15-10.49,9.13-17.73.44-16.83-3.67-36.21-3.34-53.15-.86-14.65,7.84-21.57,7.84-21.57l38.55-35.44Z"/>
  </g>
  <g id="_Radial_Repeat_-14" data-name="&amp;lt;Radial Repeat&amp;gt;">
    <path class="cls-1" d="M101.66,506.76c.39,1.89.9,3.72,1.43,5.41l-1.3-4.17c-.09-.28-.13-.7-.13-1.24Z"/>
    <path class="cls-1" d="M99.59,429.07l51.93-15.74c-4.58,11.97-8.55,24.84-14.04,35.49-2.87,6.05-6.6,9.03-13.97,11.4l-13.38,4.03c-9.38,2.78-19.28-2.56-22.11-11.93l-.34-1.1c-2.83-9.37,2.55-19.33,11.91-22.16Z"/>
    <path class="cls-1" d="M238.42,386.06c9.37-2.83,19.37,2.48,22.2,11.85l.36,1.15c2.83,9.37-2.54,19.33-11.91,22.16,0,0-39.72,11.94-47.07,14.27-9,3.24-20.41,4.49-25.78,15-.62,1.18-3.23,6.66-3.9,8.19-6.5,14.43-11.17,31.69-18.17,45.4-4.92,10.02-15.54,12.04-15.54,12.04l-14.85,4.51c-9.37,2.83-19.33-2.55-22.16-11.91l-.34-1.1c-2.83-9.37,2.51-19.27,11.9-22.21,6.61-2.07,16.07-4.67,22.77-6.76,8.63-2.52,12.8-5.48,15.92-12.01,7.7-14.97,12.41-34.22,20.06-49.34,5.58-13.57,16.42-16.03,16.42-16.03l50.11-15.2Z"/>
  </g>
</svg>